<svg xmlns="http://www.w3.org/2000/svg" xmlns:xlink="http://www.w3.org/1999/xlink" width="800" zoomAndPan="magnify" viewBox="0 0 600 599.999999" height="800" preserveAspectRatio="xMidYMid meet" version="1.0"><defs><g/><clipPath id="10a183680b"><path d="M 300 0 C 134.316406 0 0 134.316406 0 300 C 0 465.683594 134.316406 600 300 600 C 465.683594 600 600 465.683594 600 300 C 600 134.316406 465.683594 0 300 0 " clip-rule="nonzero"/></clipPath><clipPath id="cca4999049"><path d="M 112.558594 112.558594 L 486.941406 112.558594 L 486.941406 486.941406 L 112.558594 486.941406 Z M 112.558594 112.558594 " clip-rule="nonzero"/></clipPath></defs><g clip-path="url(#10a183680b)"><rect x="-60" width="720" fill="#000000" y="-60" height="719.999999" fill-opacity="1"/></g><g clip-path="url(#cca4999049)"><path fill="#ffffff" d="M 246.265625 125.929688 C 246.265625 126.808594 246.179688 127.679688 246.011719 128.539062 C 245.839844 129.398438 245.585938 130.238281 245.25 131.046875 C 244.914062 131.859375 244.5 132.628906 244.015625 133.359375 C 243.527344 134.089844 242.972656 134.765625 242.351562 135.386719 C 241.730469 136.007812 241.054688 136.558594 240.324219 137.046875 C 239.59375 137.535156 238.824219 137.949219 238.011719 138.285156 C 237.203125 138.621094 236.367188 138.875 235.503906 139.042969 C 234.644531 139.214844 233.773438 139.300781 232.894531 139.300781 L 152.671875 139.300781 C 151.792969 139.300781 150.925781 139.386719 150.0625 139.558594 C 149.203125 139.730469 148.367188 139.984375 147.554688 140.320312 C 146.746094 140.65625 145.972656 141.066406 145.242188 141.554688 C 144.515625 142.042969 143.839844 142.597656 143.21875 143.21875 C 142.597656 143.839844 142.042969 144.515625 141.554688 145.242188 C 141.066406 145.972656 140.65625 146.746094 140.320312 147.554688 C 139.984375 148.367188 139.730469 149.203125 139.558594 150.0625 C 139.386719 150.925781 139.300781 151.792969 139.300781 152.671875 L 139.300781 232.894531 C 139.300781 233.773438 139.214844 234.644531 139.042969 235.503906 C 138.875 236.367188 138.621094 237.203125 138.285156 238.011719 C 137.949219 238.824219 137.535156 239.59375 137.046875 240.324219 C 136.558594 241.054688 136.007812 241.730469 135.386719 242.351562 C 134.765625 242.972656 134.089844 243.527344 133.359375 244.015625 C 132.628906 244.5 131.859375 244.914062 131.046875 245.25 C 130.238281 245.585938 129.398438 245.839844 128.539062 246.011719 C 127.679688 246.179688 126.808594 246.265625 125.929688 246.265625 C 125.054688 246.265625 124.183594 246.179688 123.320312 246.011719 C 122.460938 245.839844 121.625 245.585938 120.8125 245.25 C 120.003906 244.914062 119.230469 244.5 118.503906 244.015625 C 117.773438 243.527344 117.097656 242.972656 116.476562 242.351562 C 115.855469 241.730469 115.300781 241.054688 114.8125 240.324219 C 114.324219 239.59375 113.914062 238.824219 113.578125 238.011719 C 113.242188 237.203125 112.988281 236.367188 112.816406 235.503906 C 112.644531 234.644531 112.558594 233.773438 112.558594 232.894531 L 112.558594 152.671875 C 112.558594 151.359375 112.625 150.046875 112.753906 148.742188 C 112.882812 147.433594 113.074219 146.136719 113.332031 144.847656 C 113.585938 143.558594 113.90625 142.285156 114.289062 141.027344 C 114.667969 139.769531 115.109375 138.535156 115.613281 137.320312 C 116.117188 136.109375 116.675781 134.921875 117.296875 133.761719 C 117.914062 132.605469 118.589844 131.480469 119.320312 130.386719 C 120.050781 129.292969 120.832031 128.242188 121.664062 127.226562 C 122.5 126.210938 123.378906 125.238281 124.308594 124.308594 C 125.238281 123.378906 126.210938 122.5 127.226562 121.664062 C 128.242188 120.832031 129.292969 120.050781 130.386719 119.320312 C 131.480469 118.589844 132.605469 117.914062 133.761719 117.296875 C 134.921875 116.675781 136.109375 116.117188 137.320312 115.613281 C 138.535156 115.109375 139.769531 114.667969 141.027344 114.289062 C 142.285156 113.90625 143.558594 113.585938 144.847656 113.332031 C 146.136719 113.074219 147.433594 112.882812 148.742188 112.753906 C 150.046875 112.625 151.359375 112.558594 152.671875 112.558594 L 232.894531 112.558594 C 233.773438 112.558594 234.644531 112.644531 235.503906 112.816406 C 236.367188 112.988281 237.203125 113.242188 238.011719 113.578125 C 238.824219 113.914062 239.59375 114.324219 240.324219 114.8125 C 241.054688 115.300781 241.730469 115.855469 242.351562 116.476562 C 242.972656 117.097656 243.527344 117.773438 244.015625 118.503906 C 244.5 119.230469 244.914062 120.003906 245.25 120.8125 C 245.585938 121.625 245.839844 122.460938 246.011719 123.320312 C 246.179688 124.183594 246.265625 125.054688 246.265625 125.929688 Z M 446.828125 112.558594 L 366.605469 112.558594 C 365.726562 112.558594 364.855469 112.644531 363.996094 112.816406 C 363.132812 112.988281 362.296875 113.242188 361.488281 113.578125 C 360.675781 113.914062 359.90625 114.324219 359.175781 114.8125 C 358.445312 115.300781 357.769531 115.855469 357.148438 116.476562 C 356.527344 117.097656 355.972656 117.773438 355.484375 118.503906 C 355 119.230469 354.585938 120.003906 354.25 120.8125 C 353.914062 121.625 353.660156 122.460938 353.488281 123.320312 C 353.320312 124.183594 353.234375 125.054688 353.234375 125.929688 C 353.234375 126.808594 353.320312 127.679688 353.488281 128.539062 C 353.660156 129.398438 353.914062 130.238281 354.25 131.046875 C 354.585938 131.859375 355 132.628906 355.484375 133.359375 C 355.972656 134.089844 356.527344 134.765625 357.148438 135.386719 C 357.769531 136.007812 358.445312 136.558594 359.175781 137.046875 C 359.90625 137.535156 360.675781 137.949219 361.488281 138.285156 C 362.296875 138.621094 363.132812 138.875 363.996094 139.042969 C 364.855469 139.214844 365.726562 139.300781 366.605469 139.300781 L 446.828125 139.300781 C 447.707031 139.300781 448.574219 139.386719 449.4375 139.558594 C 450.296875 139.730469 451.132812 139.984375 451.945312 140.320312 C 452.753906 140.65625 453.527344 141.066406 454.257812 141.554688 C 454.984375 142.042969 455.660156 142.597656 456.28125 143.21875 C 456.902344 143.839844 457.457031 144.515625 457.945312 145.242188 C 458.433594 145.972656 458.84375 146.746094 459.179688 147.554688 C 459.515625 148.367188 459.769531 149.203125 459.941406 150.0625 C 460.113281 150.925781 460.199219 151.792969 460.199219 152.671875 L 460.199219 232.894531 C 460.199219 233.773438 460.285156 234.644531 460.457031 235.503906 C 460.625 236.367188 460.878906 237.203125 461.214844 238.011719 C 461.550781 238.824219 461.964844 239.59375 462.453125 240.324219 C 462.941406 241.054688 463.492188 241.730469 464.113281 242.351562 C 464.734375 242.972656 465.410156 243.527344 466.140625 244.015625 C 466.871094 244.5 467.640625 244.914062 468.453125 245.25 C 469.261719 245.585938 470.101562 245.839844 470.960938 246.011719 C 471.820312 246.179688 472.691406 246.265625 473.570312 246.265625 C 474.445312 246.265625 475.316406 246.179688 476.179688 246.011719 C 477.039062 245.839844 477.875 245.585938 478.6875 245.25 C 479.496094 244.914062 480.269531 244.5 480.996094 244.015625 C 481.726562 243.527344 482.402344 242.972656 483.023438 242.351562 C 483.644531 241.730469 484.199219 241.054688 484.6875 240.324219 C 485.175781 239.59375 485.585938 238.824219 485.921875 238.011719 C 486.257812 237.203125 486.511719 236.367188 486.683594 235.503906 C 486.855469 234.644531 486.941406 233.773438 486.941406 232.894531 L 486.941406 152.671875 C 486.941406 151.359375 486.875 150.046875 486.746094 148.742188 C 486.617188 147.433594 486.425781 146.136719 486.167969 144.847656 C 485.914062 143.558594 485.59375 142.285156 485.210938 141.027344 C 484.832031 139.769531 484.390625 138.535156 483.886719 137.320312 C 483.382812 136.109375 482.824219 134.921875 482.203125 133.761719 C 481.585938 132.605469 480.910156 131.480469 480.179688 130.386719 C 479.449219 129.292969 478.667969 128.242188 477.835938 127.226562 C 477 126.210938 476.121094 125.238281 475.191406 124.308594 C 474.261719 123.378906 473.289062 122.5 472.273438 121.664062 C 471.257812 120.832031 470.207031 120.050781 469.113281 119.320312 C 468.019531 118.589844 466.894531 117.914062 465.738281 117.296875 C 464.578125 116.675781 463.390625 116.117188 462.179688 115.613281 C 460.964844 115.109375 459.730469 114.667969 458.472656 114.289062 C 457.214844 113.90625 455.941406 113.585938 454.652344 113.332031 C 453.363281 113.074219 452.066406 112.882812 450.757812 112.753906 C 449.453125 112.625 448.140625 112.558594 446.828125 112.558594 Z M 232.894531 460.199219 L 152.671875 460.199219 C 151.792969 460.199219 150.925781 460.113281 150.0625 459.941406 C 149.203125 459.769531 148.367188 459.515625 147.554688 459.179688 C 146.746094 458.84375 145.972656 458.433594 145.242188 457.945312 C 144.515625 457.457031 143.839844 456.902344 143.21875 456.28125 C 142.597656 455.660156 142.042969 454.984375 141.554688 454.257812 C 141.066406 453.527344 140.65625 452.753906 140.320312 451.945312 C 139.984375 451.132812 139.730469 450.296875 139.558594 449.4375 C 139.386719 448.574219 139.300781 447.707031 139.300781 446.828125 L 139.300781 366.605469 C 139.300781 365.726562 139.214844 364.855469 139.042969 363.996094 C 138.875 363.132812 138.621094 362.296875 138.285156 361.488281 C 137.949219 360.675781 137.535156 359.90625 137.046875 359.175781 C 136.558594 358.445312 136.007812 357.769531 135.386719 357.148438 C 134.765625 356.527344 134.089844 355.972656 133.359375 355.484375 C 132.628906 355 131.859375 354.585938 131.046875 354.25 C 130.238281 353.914062 129.398438 353.660156 128.539062 353.488281 C 127.679688 353.320312 126.808594 353.234375 125.929688 353.234375 C 125.054688 353.234375 124.183594 353.320312 123.320312 353.488281 C 122.460938 353.660156 121.625 353.914062 120.8125 354.25 C 120.003906 354.585938 119.230469 355 118.503906 355.484375 C 117.773438 355.972656 117.097656 356.527344 116.476562 357.148438 C 115.855469 357.769531 115.300781 358.445312 114.8125 359.175781 C 114.324219 359.90625 113.914062 360.675781 113.578125 361.488281 C 113.242188 362.296875 112.988281 363.132812 112.816406 363.996094 C 112.644531 364.855469 112.558594 365.726562 112.558594 366.605469 L 112.558594 446.828125 C 112.558594 448.140625 112.625 449.453125 112.753906 450.757812 C 112.882812 452.066406 113.074219 453.363281 113.332031 454.652344 C 113.585938 455.941406 113.90625 457.214844 114.289062 458.472656 C 114.667969 459.730469 115.109375 460.964844 115.613281 462.179688 C 116.117188 463.390625 116.675781 464.578125 117.296875 465.738281 C 117.914062 466.894531 118.589844 468.019531 119.320312 469.113281 C 120.050781 470.207031 120.832031 471.257812 121.664062 472.273438 C 122.5 473.289062 123.378906 474.261719 124.308594 475.191406 C 125.238281 476.121094 126.210938 477 127.226562 477.835938 C 128.242188 478.667969 129.292969 479.449219 130.386719 480.179688 C 131.480469 480.910156 132.605469 481.585938 133.761719 482.203125 C 134.921875 482.824219 136.109375 483.382812 137.320312 483.886719 C 138.535156 484.390625 139.769531 484.832031 141.027344 485.210938 C 142.285156 485.59375 143.558594 485.914062 144.847656 486.167969 C 146.136719 486.425781 147.433594 486.617188 148.742188 486.746094 C 150.046875 486.875 151.359375 486.941406 152.671875 486.941406 L 232.894531 486.941406 C 233.773438 486.941406 234.644531 486.855469 235.503906 486.683594 C 236.367188 486.511719 237.203125 486.257812 238.011719 485.921875 C 238.824219 485.585938 239.59375 485.175781 240.324219 484.6875 C 241.054688 484.199219 241.730469 483.644531 242.351562 483.023438 C 242.972656 482.402344 243.527344 481.726562 244.015625 480.996094 C 244.5 480.269531 244.914062 479.496094 245.25 478.6875 C 245.585938 477.875 245.839844 477.039062 246.011719 476.179688 C 246.179688 475.316406 246.265625 474.445312 246.265625 473.570312 C 246.265625 472.691406 246.179688 471.820312 246.011719 470.960938 C 245.839844 470.101562 245.585938 469.261719 245.25 468.453125 C 244.914062 467.640625 244.5 466.871094 244.015625 466.140625 C 243.527344 465.410156 242.972656 464.734375 242.351562 464.113281 C 241.730469 463.492188 241.054688 462.941406 240.324219 462.453125 C 239.59375 461.964844 238.824219 461.550781 238.011719 461.214844 C 237.203125 460.878906 236.367188 460.625 235.503906 460.457031 C 234.644531 460.285156 233.773438 460.199219 232.894531 460.199219 Z M 473.570312 353.234375 C 472.691406 353.234375 471.820312 353.320312 470.960938 353.488281 C 470.101562 353.660156 469.265625 353.914062 468.453125 354.25 C 467.640625 354.585938 466.871094 355 466.140625 355.484375 C 465.410156 355.972656 464.734375 356.527344 464.113281 357.148438 C 463.492188 357.769531 462.941406 358.445312 462.453125 359.175781 C 461.964844 359.90625 461.550781 360.675781 461.214844 361.488281 C 460.878906 362.296875 460.625 363.132812 460.457031 363.996094 C 460.285156 364.855469 460.199219 365.726562 460.199219 366.605469 L 460.199219 446.828125 C 460.199219 447.707031 460.113281 448.574219 459.941406 449.4375 C 459.769531 450.296875 459.515625 451.132812 459.179688 451.945312 C 458.84375 452.753906 458.433594 453.527344 457.945312 454.257812 C 457.457031 454.984375 456.902344 455.660156 456.28125 456.28125 C 455.660156 456.902344 454.984375 457.457031 454.257812 457.945312 C 453.527344 458.433594 452.753906 458.84375 451.945312 459.179688 C 451.132812 459.515625 450.296875 459.769531 449.4375 459.941406 C 448.574219 460.113281 447.707031 460.199219 446.828125 460.199219 L 379.972656 460.199219 C 379.097656 460.199219 378.226562 460.285156 377.367188 460.457031 C 376.503906 460.625 375.667969 460.878906 374.859375 461.214844 C 374.046875 461.550781 373.277344 461.964844 372.546875 462.453125 C 371.816406 462.941406 371.140625 463.492188 370.519531 464.113281 C 369.898438 464.734375 369.34375 465.410156 368.855469 466.140625 C 368.371094 466.871094 367.957031 467.640625 367.621094 468.453125 C 367.285156 469.261719 367.03125 470.101562 366.859375 470.960938 C 366.6875 471.820312 366.605469 472.691406 366.605469 473.570312 C 366.605469 474.445312 366.6875 475.316406 366.859375 476.179688 C 367.03125 477.039062 367.285156 477.875 367.621094 478.6875 C 367.957031 479.496094 368.371094 480.269531 368.855469 480.996094 C 369.34375 481.726562 369.898438 482.402344 370.519531 483.023438 C 371.140625 483.644531 371.816406 484.199219 372.546875 484.6875 C 373.277344 485.175781 374.046875 485.585938 374.859375 485.921875 C 375.667969 486.257812 376.503906 486.511719 377.367188 486.683594 C 378.226562 486.855469 379.097656 486.941406 379.972656 486.941406 L 446.828125 486.941406 C 448.140625 486.941406 449.453125 486.875 450.757812 486.746094 C 452.066406 486.617188 453.363281 486.425781 454.652344 486.167969 C 455.941406 485.914062 457.214844 485.59375 458.472656 485.210938 C 459.730469 484.832031 460.964844 484.390625 462.179688 483.886719 C 463.390625 483.382812 464.578125 482.824219 465.738281 482.203125 C 466.894531 481.585938 468.019531 480.910156 469.113281 480.179688 C 470.207031 479.449219 471.257812 478.667969 472.273438 477.835938 C 473.289062 477 474.261719 476.121094 475.191406 475.191406 C 476.121094 474.261719 477 473.289062 477.835938 472.273438 C 478.667969 471.257812 479.449219 470.207031 480.179688 469.113281 C 480.910156 468.019531 481.585938 466.894531 482.203125 465.738281 C 482.824219 464.578125 483.382812 463.390625 483.886719 462.179688 C 484.390625 460.964844 484.832031 459.730469 485.210938 458.472656 C 485.59375 457.214844 485.914062 455.941406 486.167969 454.652344 C 486.425781 453.363281 486.617188 452.066406 486.746094 450.757812 C 486.875 449.453125 486.941406 448.140625 486.941406 446.828125 L 486.941406 366.605469 C 486.941406 365.726562 486.855469 364.855469 486.683594 363.996094 C 486.511719 363.132812 486.257812 362.296875 485.921875 361.488281 C 485.585938 360.675781 485.175781 359.90625 484.6875 359.175781 C 484.199219 358.445312 483.644531 357.769531 483.023438 357.148438 C 482.402344 356.527344 481.726562 355.972656 480.996094 355.484375 C 480.269531 355 479.496094 354.585938 478.6875 354.25 C 477.875 353.914062 477.039062 353.660156 476.179688 353.488281 C 475.316406 353.320312 474.445312 353.234375 473.570312 353.234375 Z M 473.570312 353.234375 " fill-opacity="1" fill-rule="nonzero"/></g><g fill="#ffffff" fill-opacity="1"><g transform="translate(393.571594, 190.269148)"><g><path d="M -167.65625 43.34375 C -167.65625 28.707031 -162.78125 17.78125 -153.03125 10.5625 C -148.34375 7.132812 -143.515625 4.472656 -138.546875 2.578125 C -133.578125 0.679688 -128.742188 -0.265625 -124.046875 -0.265625 L -65 -0.265625 C -60.3125 -0.265625 -55.484375 0.679688 -50.515625 2.578125 C -45.546875 4.472656 -40.71875 7.132812 -36.03125 10.5625 C -31.332031 14.175781 -27.71875 18.644531 -25.1875 23.96875 C -22.65625 29.300781 -21.390625 35.757812 -21.390625 43.34375 L -21.390625 203.421875 C -21.390625 212.085938 -26.71875 216.421875 -37.375 216.421875 C -48.207031 216.421875 -53.625 212.085938 -53.625 203.421875 L -53.625 45.5 C -53.625 40.8125 -54.976562 36.570312 -57.6875 32.78125 C -60.394531 28.988281 -65.09375 27.09375 -71.78125 27.09375 L -117.28125 27.09375 C -123.957031 27.09375 -128.648438 28.988281 -131.359375 32.78125 C -134.078125 36.570312 -135.4375 40.8125 -135.4375 45.5 L -135.4375 203.421875 C -135.4375 212.085938 -140.757812 216.421875 -151.40625 216.421875 C -162.238281 216.421875 -167.65625 212.085938 -167.65625 203.421875 Z M -167.65625 43.34375 "/></g></g></g><g fill="#ffffff" fill-opacity="1"><g transform="translate(302.331225, 241.148947)"><g><path d="M -35.078125 12.890625 C -35.078125 9.328125 -33.867188 6.3125 -31.453125 3.84375 C -29.046875 1.382812 -26.0625 0.15625 -22.5 0.15625 C -18.925781 0.15625 -15.929688 1.382812 -13.515625 3.84375 C -11.109375 6.3125 -9.90625 9.328125 -9.90625 12.890625 C -9.90625 16.359375 -11.109375 19.320312 -13.515625 21.78125 C -15.929688 24.25 -18.925781 25.484375 -22.5 25.484375 C -26.0625 25.484375 -29.046875 24.25 -31.453125 21.78125 C -33.867188 19.320312 -35.078125 16.359375 -35.078125 12.890625 Z M -35.078125 12.890625 "/></g></g></g><g fill="#ffffff" fill-opacity="1"><g transform="translate(340.74174, 241.148947)"><g><path d="M -35.078125 12.890625 C -35.078125 9.328125 -33.867188 6.3125 -31.453125 3.84375 C -29.046875 1.382812 -26.0625 0.15625 -22.5 0.15625 C -18.925781 0.15625 -15.929688 1.382812 -13.515625 3.84375 C -11.109375 6.3125 -9.90625 9.328125 -9.90625 12.890625 C -9.90625 16.359375 -11.109375 19.320312 -13.515625 21.78125 C -15.929688 24.25 -18.925781 25.484375 -22.5 25.484375 C -26.0625 25.484375 -29.046875 24.25 -31.453125 21.78125 C -33.867188 19.320312 -35.078125 16.359375 -35.078125 12.890625 Z M -35.078125 12.890625 "/></g></g></g></svg>