<svg xmlns="http://www.w3.org/2000/svg" xmlns:xlink="http://www.w3.org/1999/xlink" width="100" zoomAndPan="magnify" viewBox="0 0 75 74.999997" height="100" preserveAspectRatio="xMidYMid meet" version="1.0"><defs><clipPath id="6c550fa5d8"><path d="M 37.5 0 C 16.789062 0 0 16.789062 0 37.5 C 0 58.210938 16.789062 75 37.5 75 C 58.210938 75 75 58.210938 75 37.5 C 75 16.789062 58.210938 0 37.5 0 " clip-rule="nonzero"/></clipPath><clipPath id="f6118d92d3"><path d="M 46 26.589844 L 68.832031 26.589844 L 68.832031 48.339844 L 46 48.339844 Z M 46 26.589844 " clip-rule="nonzero"/></clipPath><clipPath id="ae85b6bc70"><path d="M 33 26.589844 L 45 26.589844 L 45 48.339844 L 33 48.339844 Z M 33 26.589844 " clip-rule="nonzero"/></clipPath><clipPath id="38a128af0c"><path d="M 6 26.589844 L 29 26.589844 L 29 48.339844 L 6 48.339844 Z M 6 26.589844 " clip-rule="nonzero"/></clipPath></defs><g clip-path="url(#6c550fa5d8)"><rect x="-7.5" width="90" fill="#000000" y="-7.5" height="89.999996" fill-opacity="1"/></g><g clip-path="url(#f6118d92d3)"><path fill="#ffffff" d="M 62.148438 48.332031 L 57.125 48.332031 C 51.101562 48.332031 46.203125 43.460938 46.203125 37.464844 C 46.203125 31.472656 51.101562 26.597656 57.125 26.597656 C 63.148438 26.597656 68.042969 31.46875 68.042969 37.464844 L 68.042969 48.117188 L 63.675781 48.117188 L 63.675781 37.464844 C 63.675781 33.859375 60.746094 30.945312 57.125 30.945312 C 53.503906 30.945312 50.574219 33.859375 50.574219 37.464844 C 50.574219 41.066406 53.503906 43.984375 57.125 43.984375 L 62.148438 43.984375 Z M 62.148438 48.332031 " fill-opacity="1" fill-rule="nonzero"/></g><g clip-path="url(#ae85b6bc70)"><path fill="#ffffff" d="M 37.46875 48.117188 L 33.101562 48.117188 L 33.101562 37.464844 C 33.101562 31.46875 37.996094 26.597656 44.019531 26.597656 L 44.019531 30.945312 C 40.398438 30.945312 37.46875 33.859375 37.46875 37.464844 Z M 37.46875 48.117188 " fill-opacity="1" fill-rule="nonzero"/></g><g clip-path="url(#38a128af0c)"><path fill="#ffffff" d="M 17.8125 48.332031 C 11.789062 48.332031 6.890625 43.460938 6.890625 37.464844 C 6.890625 31.472656 11.789062 26.597656 17.8125 26.597656 C 23.835938 26.597656 28.730469 31.46875 28.730469 37.464844 L 28.730469 39.636719 L 16.171875 39.636719 L 16.171875 35.289062 L 23.984375 35.289062 C 23.074219 32.757812 20.65625 30.945312 17.816406 30.945312 C 14.195312 30.945312 11.265625 33.859375 11.265625 37.464844 C 11.265625 41.066406 14.195312 43.984375 17.816406 43.984375 C 20 43.984375 22.039062 42.898438 23.257812 41.085938 L 26.878906 43.511719 C 24.859375 46.519531 21.472656 48.332031 17.808594 48.332031 Z M 17.8125 48.332031 " fill-opacity="1" fill-rule="nonzero"/></g></svg>